<svg xmlns="http://www.w3.org/2000/svg" viewBox="0 0 1106.38 275">
  <defs>
    <style>.cls-1{fill:#d02430;}.cls-2{fill:#333;}</style>
  </defs>
  <g id="Layer_2" data-name="Layer 2">
    <path class="cls-1" d="M187.33,203.26l-8.87,4-33.63-12.87,33.63-12.87,8.87,4a9.71,9.71,0,0,0,7.91-17.73l-3.51-1.56,1.56-3.51a9.71,9.71,0,1,0-17.73-7.91l-4,8.87-53.56,20.5L64.49,163.6l-4-8.87a9.71,9.71,0,1,0-17.73,7.91l1.56,3.51-3.51,1.56a9.71,9.71,0,0,0,7.91,17.73l8.87-4,33.63,12.87L57.65,207.22l-8.87-4A9.71,9.71,0,0,0,40.86,221l3.51,1.56-1.56,3.51A9.71,9.71,0,1,0,60.53,234l4-8.87,53.56-20.5,53.56,20.5,4,8.87a9.71,9.71,0,1,0,17.73-7.91l-1.56-3.51,3.51-1.56a9.71,9.71,0,0,0-7.91-17.73Z"/>
    <circle class="cls-1" cx="109.24" cy="122.22" r="2.66"/>
    <circle class="cls-1" cx="127.36" cy="122.22" r="2.66"/>
    <path class="cls-1" d="M199.83,46.73l-2.16-10.78L146.22,45a72.07,72.07,0,0,0-55.84,0L38.93,35.94,36.77,46.73,51,89.53a64.63,64.63,0,0,0-2.19,16.72c0,36.93,31.09,66.86,69.45,66.86s69.45-29.94,69.45-66.86a64.63,64.63,0,0,0-2.19-16.72ZM43.08,46.33,43.75,43l34.82,6.15L53.48,77.53Zm31.86,64.56a8.47,8.47,0,1,1,8.47-8.47A8.47,8.47,0,0,1,74.95,110.89Zm43.35,29c-26.6,0-22-7.92-22-17.69s7.91-17.69,22-17.69,22,7.92,22,17.69S144.9,139.9,118.3,139.9Zm43.35-29a8.47,8.47,0,1,1,8.47-8.47A8.47,8.47,0,0,1,161.65,110.89ZM158,49.15,192.85,43l.67,3.33-10.4,31.2Z"/>
    <path class="cls-2" d="M358.92,184.76c-12.94,12.76-29.66,18.7-47.82,18.7-46.74,0-66.52-32.18-66.7-64.9-.18-32.9,21.21-66.34,66.7-66.34a64.93,64.93,0,0,1,46.2,19.24l-15.82,15.28c-8.27-8.09-19.42-11.87-30.38-11.87-30.38,0-43.51,22.65-43.33,43.69.18,20.85,12.23,42.61,43.33,42.61,11,0,23.37-4.49,31.64-12.76Z"/>
    <path class="cls-2" d="M456.9,156.35c0,25.53-17.44,46.2-46.2,46.2s-46-20.67-46-46.2c0-25.35,17.62-46.2,45.84-46.2S456.9,131,456.9,156.35Zm-70.29,0c0,13.48,8.09,26.07,24.09,26.07s24.09-12.58,24.09-26.07c0-13.3-9.35-26.25-24.09-26.25C394.88,130.1,386.61,143,386.61,156.35Z"/>
    <path class="cls-2" d="M548,189.25c-10.25,10.07-21,14-34.16,14-25.71,0-47.1-15.46-47.1-46.92s21.39-46.92,47.1-46.92c12.58,0,22.29,3.6,32,13.12L532,137.12a26.92,26.92,0,0,0-17.8-7c-14.74,0-25.53,10.79-25.53,26.25,0,16.9,11.51,25.89,25.17,25.89,7,0,14-2,19.42-7.37Z"/>
    <path class="cls-2" d="M579.69,74.73V124c7.91-10.25,17.62-13.3,27.69-13.3,25.17,0,36.32,17.08,36.32,43.15v46.74H621.76V154c0-16.18-8.45-23-20.14-23-12.94,0-21.93,11-21.93,24.27v45.3H557.76V74.73Z"/>
    <path class="cls-2" d="M750.3,156.35c0,25.53-17.44,46.2-46.2,46.2s-46-20.67-46-46.2c0-25.35,17.62-46.2,45.84-46.2S750.3,131,750.3,156.35Zm-70.29,0c0,13.48,8.09,26.07,24.09,26.07s24.09-12.58,24.09-26.07c0-13.3-9.35-26.25-24.09-26.25C688.28,130.1,680,143,680,156.35Z"/>
    <path class="cls-2" d="M830.66,200.58V154.2c0-13.48-7.37-23.73-21.39-23.73-13.48,0-22.65,11.33-22.65,24.81v45.3H764.86V111.77h19.6l1.44,12c9-8.81,18-13.3,29.13-13.3,20.85,0,37.57,15.64,37.57,43.51v46.56Z"/>
    <path class="cls-2" d="M959.56,156.35c0,25.53-17.44,46.2-46.2,46.2s-46-20.67-46-46.2c0-25.35,17.62-46.2,45.84-46.2S959.56,131,959.56,156.35Zm-70.29,0c0,13.48,8.09,26.07,24.09,26.07s24.09-12.58,24.09-26.07c0-13.3-9.35-26.25-24.09-26.25C897.54,130.1,889.27,143,889.27,156.35Z"/>
    <path class="cls-2" d="M997.13,111.95v46.38c0,13.48,7.37,23.73,21.39,23.73,13.48,0,22.65-11.33,22.65-24.81v-45.3h21.75v88.81h-19.6l-1.44-12c-9.17,9-17.62,13.3-30,13.3-21.21,0-36.67-16-36.67-43.51V111.95Z"/>
  </g>
</svg>